<svg width="52" height="52" viewBox="0 0 52 52" fill="none" xmlns="http://www.w3.org/2000/svg">
<rect width="52" height="52" rx="26" fill="#725EF3"/>
<path d="M30.278 20.2173C29.9838 19.9257 29.5089 19.9278 29.2173 20.222C28.9257 20.5162 28.9278 20.9911 29.222 21.2827L30.985 23.03C31.7005 23.7391 32.1913 24.2272 32.5234 24.6407C32.6313 24.7751 32.7155 24.8934 32.7809 25L17.75 25C17.3358 25 17 25.3358 17 25.75C17 26.1642 17.3358 26.5 17.75 26.5L32.7809 26.5C32.7155 26.6066 32.6313 26.7249 32.5234 26.8593C32.1913 27.2728 31.7005 27.7609 30.985 28.47L29.222 30.2173C28.9278 30.5089 28.9257 30.9838 29.2173 31.278C29.5089 31.5722 29.9838 31.5743 30.278 31.2827L32.0727 29.5039C32.7487 28.834 33.3011 28.2864 33.6929 27.7985C34.1004 27.2912 34.3953 26.7763 34.4741 26.1582C34.4914 26.0226 34.5 25.8863 34.5 25.75C34.5 25.6137 34.4914 25.4774 34.4741 25.3418C34.3953 24.7237 34.1004 24.2088 33.6929 23.7015C33.3011 23.2136 32.7487 22.666 32.0727 21.9961L30.278 20.2173Z" fill="white"/>
</svg>
