<svg width="19" height="19" viewBox="0 0 19 19" fill="none" xmlns="http://www.w3.org/2000/svg">
<path d="M12.4369 10.0622C13.213 9.45156 13.7796 8.61418 14.0576 7.66657C14.3357 6.71896 14.3115 5.70825 13.9884 4.77503C13.6653 3.84182 13.0593 3.03251 12.2549 2.45971C11.4504 1.88691 10.4874 1.5791 9.49981 1.5791C8.51225 1.5791 7.54924 1.88691 6.74476 2.45971C5.94028 3.03251 5.33434 3.84182 5.01123 4.77503C4.68813 5.70825 4.66393 6.71896 4.942 7.66657C5.22007 8.61418 5.78659 9.45156 6.56273 10.0622C5.23279 10.595 4.07237 11.4788 3.20519 12.6192C2.338 13.7597 1.79655 15.1141 1.63856 16.538C1.62713 16.642 1.63628 16.7472 1.6655 16.8476C1.69472 16.948 1.74343 17.0417 1.80886 17.1233C1.941 17.2881 2.13318 17.3937 2.34315 17.4168C2.55311 17.4399 2.76365 17.3786 2.92845 17.2465C3.09324 17.1144 3.1988 16.9222 3.2219 16.7122C3.39574 15.1646 4.13365 13.7354 5.29465 12.6975C6.45566 11.6596 7.95836 11.0859 9.51565 11.0859C11.0729 11.0859 12.5756 11.6596 13.7366 12.6975C14.8976 13.7354 15.6356 15.1646 15.8094 16.7122C15.8309 16.9067 15.9237 17.0864 16.0699 17.2165C16.2161 17.3466 16.4054 17.418 16.6011 17.4168H16.6881C16.8957 17.3929 17.0853 17.288 17.2158 17.1249C17.3463 16.9617 17.4071 16.7537 17.3848 16.546C17.2261 15.1179 16.6817 13.7601 15.8101 12.6179C14.9384 11.4757 13.7724 10.5922 12.4369 10.0622V10.0622ZM9.49981 9.50012C8.87351 9.50012 8.26126 9.3144 7.74051 8.96644C7.21975 8.61848 6.81387 8.12392 6.5742 7.54528C6.33452 6.96665 6.27181 6.32994 6.39399 5.71567C6.51618 5.10139 6.81778 4.53715 7.26064 4.09428C7.70351 3.65141 8.26776 3.34982 8.88203 3.22763C9.4963 3.10545 10.133 3.16816 10.7116 3.40783C11.2903 3.64751 11.7848 4.05339 12.1328 4.57415C12.4808 5.0949 12.6665 5.70715 12.6665 6.33345C12.6665 7.1733 12.3329 7.97876 11.739 8.57262C11.1451 9.16649 10.3397 9.50012 9.49981 9.50012Z" fill="white"/>
</svg>
