<svg width="77" height="76" viewBox="0 0 77 76" fill="none" xmlns="http://www.w3.org/2000/svg">
<rect x="0.5" width="76" height="76" rx="38" fill="#F1F2F9"/>
<path d="M28.3829 51C25.7202 51 23.7232 50.1483 22.3919 48.4449C21.1306 46.7414 20.5 44.5057 20.5 41.7376C20.5 39.6084 20.9905 37.4791 21.9715 35.3498C22.9525 33.1496 24.3539 30.9848 26.1757 28.8555C27.9975 26.7262 30.2047 24.7744 32.7973 23L34.1637 24.7034C31.2908 26.9037 29.2588 29.1394 28.0676 31.4106C26.9464 33.6819 26.3509 36.0596 26.2808 38.5437H29.1186C30.45 38.5437 31.5711 38.7921 32.482 39.289C33.3929 39.7148 34.0936 40.3536 34.5841 41.2053C35.0746 42.057 35.3198 43.0152 35.3198 44.0798C35.3198 46.0672 34.6542 47.7351 33.3228 49.0836C32.0616 50.3612 30.4149 51 28.3829 51ZM48.5631 51C45.9004 51 43.9034 50.1483 42.5721 48.4449C41.3108 46.7414 40.6802 44.5057 40.6802 41.7376C40.6802 39.6084 41.1707 37.4791 42.1517 35.3498C43.1326 33.1496 44.534 30.9848 46.3559 28.8555C48.1777 26.7262 50.3849 24.7744 52.9775 23L54.3438 24.7034C51.471 26.9037 49.4389 29.1394 48.2477 31.4106C47.1266 33.6819 46.531 36.0596 46.461 38.5437H49.2988C50.6301 38.5437 51.7513 38.7921 52.6622 39.289C53.5731 39.7148 54.2738 40.3536 54.7643 41.2053C55.2548 42.057 55.5 43.0152 55.5 44.0798C55.5 46.0672 54.8343 47.7351 53.503 49.0836C52.2417 50.3612 50.5951 51 48.5631 51Z" fill="#725EF3" fill-opacity="0.1"/>
</svg>
