<svg width="19" height="19" viewBox="0 0 19 19" fill="none" xmlns="http://www.w3.org/2000/svg">
<path d="M16.6249 8.31242H15.8333V7.52075C15.8333 7.31079 15.7498 7.10943 15.6014 6.96096C15.4529 6.81249 15.2515 6.72909 15.0416 6.72909C14.8316 6.72909 14.6303 6.81249 14.4818 6.96096C14.3333 7.10943 14.2499 7.31079 14.2499 7.52075V8.31242H13.4583C13.2483 8.31242 13.0469 8.39583 12.8985 8.54429C12.75 8.69276 12.6666 8.89412 12.6666 9.10409C12.6666 9.31405 12.75 9.51541 12.8985 9.66388C13.0469 9.81235 13.2483 9.89575 13.4583 9.89575H14.2499V10.6874C14.2499 10.8974 14.3333 11.0987 14.4818 11.2472C14.6303 11.3957 14.8316 11.4791 15.0416 11.4791C15.2515 11.4791 15.4529 11.3957 15.6014 11.2472C15.7498 11.0987 15.8333 10.8974 15.8333 10.6874V9.89575H16.6249C16.8349 9.89575 17.0362 9.81235 17.1847 9.66388C17.3332 9.51541 17.4166 9.31405 17.4166 9.10409C17.4166 8.89412 17.3332 8.69276 17.1847 8.54429C17.0362 8.39583 16.8349 8.31242 16.6249 8.31242ZM10.5291 9.67409C10.9515 9.30844 11.2903 8.8562 11.5225 8.34806C11.7547 7.83992 11.8749 7.28777 11.8749 6.72909C11.8749 5.67927 11.4579 4.67245 10.7156 3.93012C9.97322 3.18779 8.9664 2.77075 7.91659 2.77075C6.86677 2.77075 5.85995 3.18779 5.11762 3.93012C4.37529 4.67245 3.95825 5.67927 3.95825 6.72909C3.95825 7.28777 4.07843 7.83992 4.31064 8.34806C4.54286 8.8562 4.88167 9.30844 5.30409 9.67409C4.19586 10.1759 3.25562 10.9863 2.59578 12.0084C1.93594 13.0304 1.58442 14.2209 1.58325 15.4374C1.58325 15.6474 1.66666 15.8487 1.81513 15.9972C1.96359 16.1457 2.16496 16.2291 2.37492 16.2291C2.58488 16.2291 2.78625 16.1457 2.93471 15.9972C3.08318 15.8487 3.16659 15.6474 3.16659 15.4374C3.16659 14.1776 3.66703 12.9695 4.55783 12.0787C5.44863 11.1879 6.65681 10.6874 7.91659 10.6874C9.17636 10.6874 10.3845 11.1879 11.2753 12.0787C12.1661 12.9695 12.6666 14.1776 12.6666 15.4374C12.6666 15.6474 12.75 15.8487 12.8985 15.9972C13.0469 16.1457 13.2483 16.2291 13.4583 16.2291C13.6682 16.2291 13.8696 16.1457 14.018 15.9972C14.1665 15.8487 14.2499 15.6474 14.2499 15.4374C14.2488 14.2209 13.8972 13.0304 13.2374 12.0084C12.5776 10.9863 11.6373 10.1759 10.5291 9.67409V9.67409ZM7.91659 9.10409C7.44686 9.10409 6.98767 8.96479 6.59711 8.70383C6.20654 8.44286 5.90213 8.07193 5.72237 7.63796C5.54261 7.20398 5.49558 6.72645 5.58722 6.26575C5.67886 5.80504 5.90506 5.38186 6.23721 5.04971C6.56936 4.71756 6.99254 4.49136 7.45325 4.39972C7.91395 4.30808 8.39148 4.35511 8.82546 4.53487C9.25943 4.71463 9.63036 5.01904 9.89133 5.40961C10.1523 5.80017 10.2916 6.25935 10.2916 6.72909C10.2916 7.35897 10.0414 7.96307 9.59596 8.40846C9.15057 8.85386 8.54648 9.10409 7.91659 9.10409Z" fill="#725EF3"/>
</svg>
